<svg xmlns="http://www.w3.org/2000/svg" viewBox="0 0 24 24" fill="black" width="32px" height="32px"><path d="M0 0h24v24H0z" fill="none"/><path d="M12 2C6.48 2 2 6.48 2 12c0 4.41 2.87 8.17 6.84 9.49.5.09.68-.22.68-.48 0-.24-.01-.87-.01-1.7-2.78.6-3.37-1.34-3.37-1.34-.46-1.16-1.11-1.47-1.11-1.47-.91-.62.07-.61.07-.61 1.01.07 1.54 1.04 1.54 1.04.9 1.54 2.35 1.1 2.93.84.09-.65.35-1.1.64-1.35-2.22-.25-4.55-1.11-4.55-4.94 0-1.1.39-1.99 1.03-2.69-.1-.25-.45-1.27.1-2.65 0 0 .84-.27 2.75 1.02.8-.22 1.65-.33 2.5-.34.85.01 1.7.12 2.5.34 1.91-1.29 2.75-1.02 2.75-1.02.55 1.38.2 2.4.1 2.65.64.7 1.03 1.59 1.03 2.69 0 3.84-2.34 4.68-4.57 4.94.36.31.69.94.69 1.9 0 1.37-.01 2.47-.01 2.81 0 .26.18.58.69.48C19.13 20.17 22 16.41 22 12c0-5.52-4.48-10-10-10z"/></svg>
